<svg width="184" height="64" viewBox="0 0 184 64" fill="none" xmlns="http://www.w3.org/2000/svg">
<path d="M39.0553 36.1907L44.3677 30.869C47.4865 27.7448 47.4865 22.6795 44.3677 19.5553C41.249 16.4311 36.1924 16.4311 33.0737 19.5553L27.7613 24.8769C28.7747 27.3445 30.282 29.6565 32.2831 31.6611C34.2842 33.6656 36.592 35.1755 39.0553 36.1907Z" fill="white"/>
<path d="M36.6349 38.6155C34.2443 37.4715 32.0039 35.9078 30.0239 33.9243C28.0438 31.9408 26.4828 29.6965 25.3408 27.3018L19.5204 33.1323C16.4016 36.2565 16.4016 41.3218 19.5204 44.446C22.6392 47.5702 27.6957 47.5702 30.8145 44.446L36.6349 38.6155Z" fill="#FF6600"/>
<path fill-rule="evenodd" clip-rule="evenodd" d="M35.3065 0.18043C52.8696 2.03949 65.5646 17.8011 63.7088 35.3679C61.8529 52.9616 46.1187 65.6786 28.5824 63.8196C11.0193 61.9605 -1.67572 46.1989 0.180116 28.6321C2.03595 11.0384 17.7702 -1.67863 35.3065 0.18043ZM34.6072 6.86227C20.8094 5.38041 8.30275 15.5109 6.85036 29.3327C5.37107 43.1544 15.484 55.6828 29.2817 57.1377C43.0794 58.6196 55.5861 48.4891 57.0385 34.6673C58.5178 20.8456 48.4049 8.31719 34.6072 6.86227Z" fill="#FF6600"/>
<path d="M85.3301 46.5633V18.0029H99.087C101.931 18.0029 104.151 18.6554 105.746 19.9602C107.394 21.3183 108.218 23.1425 108.218 25.4326C108.218 28.1488 106.889 30.0129 104.231 31.0248V31.1447C105.799 31.624 107.035 32.4895 107.939 33.7411C108.87 34.9927 109.335 36.4573 109.335 38.135C109.335 40.9045 108.365 43.0348 106.424 44.5261C104.696 45.8842 102.357 46.5633 99.406 46.5633H85.3301ZM92.3082 40.8911H98.6085C99.7516 40.8911 100.655 40.5849 101.32 39.9724C102.011 39.3599 102.357 38.5477 102.357 37.5358C102.357 36.444 101.998 35.6051 101.28 35.0193C100.562 34.4068 99.6453 34.1006 98.5288 34.1006H92.3082V40.8911ZM92.3082 29.3072H98.0503C99.087 29.3072 99.9111 29.0542 100.523 28.5483C101.161 28.0423 101.48 27.3366 101.48 26.4312C101.48 25.5524 101.174 24.8601 100.562 24.3541C99.951 23.8481 99.1269 23.5952 98.0901 23.5952H92.3082V29.3072Z" fill="white"/>
<path d="M111.684 46.5633V26.1117H118.183V46.5633H111.684ZM111.684 23.2756V18.0029H118.183V23.2756H111.684Z" fill="white"/>
<path d="M129.397 46.8029C127.323 46.8029 125.715 46.3902 124.572 45.5646C123.455 44.7125 122.897 43.2479 122.897 41.1708V30.186H120.185V26.1117H122.897V19.6407H129.237V26.1117H132.945V30.186H129.237V39.7727C129.237 40.5183 129.423 41.0376 129.795 41.3305C130.194 41.6235 130.766 41.7699 131.51 41.7699C131.723 41.7699 132.002 41.7699 132.347 41.7699C132.693 41.7433 132.892 41.73 132.945 41.73V46.4834C132.201 46.6964 131.018 46.8029 129.397 46.8029Z" fill="white"/>
<path d="M135.282 46.5633V18.0029H141.701V33.0221L147.762 26.1117H155.259L148.081 33.781L156.096 46.5633H148.56L143.655 38.2149L141.701 40.292V46.5633H135.282Z" fill="white"/>
<path d="M157.594 46.5633V26.1117H164.094V46.5633H157.594ZM157.594 23.2756V18.0029H164.094V23.2756H157.594Z" fill="white"/>
<path d="M175.307 46.8029C173.234 46.8029 171.626 46.3902 170.483 45.5646C169.366 44.7125 168.808 43.2479 168.808 41.1708V30.186H166.096V26.1117H168.808V19.6407H175.148V26.1117H178.856V30.186H175.148V39.7727C175.148 40.5183 175.334 41.0376 175.706 41.3305C176.105 41.6235 176.677 41.7699 177.421 41.7699C177.634 41.7699 177.913 41.7699 178.258 41.7699C178.604 41.7433 178.803 41.73 178.856 41.73V46.4834C178.112 46.6964 176.929 46.8029 175.307 46.8029Z" fill="white"/>
</svg>
