<svg width="24" height="24" viewBox="0 0 24 24" fill="none" xmlns="http://www.w3.org/2000/svg">
<path fill-rule="evenodd" clip-rule="evenodd" d="M7.53902 21.701C16.5954 21.701 21.551 14.312 21.551 7.91515C21.551 7.70728 21.551 7.4994 21.5414 7.29153C22.5018 6.61121 23.3373 5.75137 24 4.77814C23.1164 5.16554 22.1657 5.42066 21.1669 5.5435C22.1849 4.94822 22.9628 3.99389 23.3373 2.86003C22.3866 3.41751 21.3301 3.81436 20.2065 4.03168C19.3037 3.0868 18.0264 2.50098 16.6146 2.50098C13.8968 2.50098 11.6879 4.6742 11.6879 7.34822C11.6879 7.72617 11.7359 8.09468 11.8127 8.45373C7.72149 8.25531 4.09124 6.3183 1.66146 3.38917C1.2389 4.10728 0.9988 4.93877 0.9988 5.82696C0.9988 7.50885 1.87275 8.99231 3.18848 9.86161C2.38175 9.83326 1.62305 9.61594 0.960384 9.25688C0.960384 9.27578 0.960384 9.29468 0.960384 9.32302C0.960384 11.6663 2.66026 13.6317 4.90756 14.0758C4.4946 14.1892 4.06243 14.2459 3.61104 14.2459C3.29412 14.2459 2.98679 14.2175 2.68908 14.1608C3.31333 16.0884 5.13806 17.4868 7.28932 17.5246C5.59904 18.8285 3.47659 19.6033 1.17167 19.6033C0.777911 19.6033 0.384154 19.5844 0 19.5372C2.17047 20.8978 4.76351 21.701 7.53902 21.701Z" fill="#FF6600"/>
</svg>
