<svg width="288" height="100" viewBox="0 0 288 100" fill="none" xmlns="http://www.w3.org/2000/svg">
<path fill-rule="evenodd" clip-rule="evenodd" d="M55.2623 0.281921C82.7525 3.1867 102.623 27.8142 99.7181 55.2623C96.8133 82.7525 72.1858 102.623 44.7377 99.7181C17.2475 96.8133 -2.62286 72.1858 0.281921 44.7377C3.1867 17.2475 27.8142 -2.62286 55.2623 0.281921ZM54.1677 10.7223C32.5713 8.40689 12.9956 24.2358 10.7223 45.8323C8.40689 67.4287 24.2358 87.0044 45.8323 89.2777C67.4287 91.5931 87.0044 75.7642 89.2777 54.1677C91.5931 32.5713 75.7642 12.9956 54.1677 10.7223Z" fill="#0085FF"/>
<rect x="27" y="50.3345" width="11" height="11" transform="rotate(-45 27 50.3345)" fill="white"/>
<rect x="42.5562" y="34.7781" width="11" height="11" transform="rotate(-45 42.5562 34.7781)" fill="white"/>
<rect x="42.5562" y="50.3345" width="11" height="11" transform="rotate(-45 42.5562 50.3345)" fill="white"/>
<rect x="42.5562" y="65.8909" width="11" height="11" transform="rotate(-45 42.5562 65.8909)" fill="white"/>
<rect x="58.1128" y="50.3345" width="11" height="11" transform="rotate(-45 58.1128 50.3345)" fill="white"/>
<path d="M141 73.6255V29H162.533C166.985 29 170.459 30.0194 172.956 32.0583C175.535 34.1803 176.825 37.0305 176.825 40.6089C176.825 44.853 174.745 47.7656 170.584 49.3467V49.534C173.039 50.2829 174.974 51.6352 176.388 53.5908C177.845 55.5465 178.573 57.835 178.573 60.4563C178.573 64.7836 177.054 68.1123 174.017 70.4424C171.312 72.5645 167.65 73.6255 163.032 73.6255H141ZM151.922 64.7628H161.784C163.573 64.7628 164.988 64.2843 166.028 63.3273C167.11 62.3703 167.65 61.1012 167.65 59.5201C167.65 57.8141 167.089 56.5035 165.965 55.5881C164.842 54.6311 163.406 54.1526 161.659 54.1526H151.922V64.7628ZM151.922 46.663H160.91C162.533 46.663 163.822 46.2677 164.779 45.4771C165.778 44.6865 166.277 43.5839 166.277 42.1692C166.277 40.7961 165.799 39.7143 164.842 38.9237C163.885 38.1331 162.595 37.7379 160.972 37.7379H151.922V46.663Z" fill="white"/>
<path d="M182.249 73.6255V41.6699H192.422V73.6255H182.249ZM182.249 37.2386V29H192.422V37.2386H182.249Z" fill="white"/>
<path d="M209.974 74C206.728 74 204.211 73.3551 202.422 72.0652C200.674 70.7337 199.8 68.4452 199.8 65.1997V48.0361H195.556V41.6699H199.8V31.5589H209.724V41.6699H215.528V48.0361H209.724V63.0153C209.724 64.1803 210.015 64.9917 210.598 65.4494C211.222 65.9071 212.116 66.1359 213.281 66.1359C213.614 66.1359 214.051 66.1359 214.592 66.1359C215.133 66.0943 215.445 66.0735 215.528 66.0735V73.5007C214.363 73.8336 212.512 74 209.974 74Z" fill="white"/>
<path d="M219.185 73.6255V29H229.233V52.4674L238.72 41.6699H250.454L239.22 53.6533L251.765 73.6255H239.969L232.292 60.5811L229.233 63.8266V73.6255H219.185Z" fill="white"/>
<path d="M254.11 73.6255V41.6699H264.283V73.6255H254.11ZM254.11 37.2386V29H264.283V37.2386H254.11Z" fill="white"/>
<path d="M281.834 74C278.589 74 276.071 73.3551 274.282 72.0652C272.535 70.7337 271.661 68.4452 271.661 65.1997V48.0361H267.417V41.6699H271.661V31.5589H281.585V41.6699H287.389V48.0361H281.585V63.0153C281.585 64.1803 281.876 64.9917 282.458 65.4494C283.082 65.9071 283.977 66.1359 285.142 66.1359C285.475 66.1359 285.912 66.1359 286.453 66.1359C286.994 66.0943 287.306 66.0735 287.389 66.0735V73.5007C286.224 73.8336 284.372 74 281.834 74Z" fill="white"/>
</svg>
