<svg width="288" height="100" viewBox="0 0 288 100" fill="none" xmlns="http://www.w3.org/2000/svg">
<path d="M61.1301 56.5473L69.4453 48.2321C74.3268 43.3506 74.3268 35.436 69.4453 30.5544C64.5637 25.6729 56.6492 25.6729 51.7676 30.5544L43.4526 38.8694C45.0388 42.7251 47.3981 46.3376 50.5303 49.4698C53.6623 52.6019 57.2746 54.961 61.1301 56.5473Z" fill="white"/>
<path d="M57.3422 60.3353C53.6005 58.5478 50.0938 56.1045 46.9945 53.0053C43.8953 49.9061 41.452 46.3994 39.6646 42.6576L30.5543 51.7678C25.6728 56.6494 25.6728 64.564 30.5543 69.4455C35.4359 74.3271 43.3504 74.3271 48.232 69.4455L57.3422 60.3353Z" fill="#FF6600"/>
<path fill-rule="evenodd" clip-rule="evenodd" d="M55.2623 0.281921C82.7525 3.1867 102.623 27.8142 99.7181 55.2623C96.8133 82.7525 72.1858 102.623 44.7377 99.7181C17.2475 96.8133 -2.62286 72.1858 0.281921 44.7377C3.1867 17.2475 27.8142 -2.62286 55.2623 0.281921ZM54.1677 10.7223C32.5713 8.40689 12.9956 24.2358 10.7223 45.8323C8.40689 67.4287 24.2358 87.0044 45.8323 89.2777C67.4287 91.5931 87.0044 75.7642 89.2777 54.1677C91.5931 32.5713 75.7642 12.9956 54.1677 10.7223Z" fill="#FF6600"/>
<path d="M133.561 72.7554V28.1299H155.093C159.545 28.1299 163.02 29.1493 165.516 31.1881C168.096 33.3102 169.386 36.1604 169.386 39.7388C169.386 43.9829 167.305 46.8955 163.144 48.4766V48.6639C165.599 49.4128 167.534 50.7651 168.949 52.7207C170.405 54.6763 171.133 56.9648 171.133 59.5862C171.133 63.9135 169.615 67.2422 166.577 69.5723C163.873 71.6944 160.211 72.7554 155.592 72.7554H133.561ZM144.483 63.8927H154.344C156.133 63.8927 157.548 63.4142 158.588 62.4572C159.67 61.5002 160.211 60.2311 160.211 58.65C160.211 56.944 159.649 55.6334 158.526 54.718C157.402 53.761 155.967 53.2824 154.219 53.2824H144.483V63.8927ZM144.483 45.7929H153.47C155.093 45.7929 156.383 45.3976 157.34 44.607C158.339 43.8164 158.838 42.7138 158.838 41.2991C158.838 39.926 158.359 38.8442 157.402 38.0536C156.445 37.263 155.156 36.8677 153.533 36.8677H144.483V45.7929Z" fill="white"/>
<path d="M174.809 72.7554V40.7998H184.983V72.7554H174.809ZM174.809 36.3684V28.1299H184.983V36.3684H174.809Z" fill="white"/>
<path d="M202.534 73.1299C199.289 73.1299 196.771 72.4849 194.982 71.1951C193.234 69.8636 192.361 67.5751 192.361 64.3296V47.1659H188.117V40.7998H192.361V30.6888H202.284V40.7998H208.089V47.1659H202.284V62.1451C202.284 63.3102 202.576 64.1216 203.158 64.5793C203.782 65.037 204.677 65.2658 205.842 65.2658C206.175 65.2658 206.612 65.2658 207.153 65.2658C207.694 65.2242 208.006 65.2034 208.089 65.2034V72.6306C206.924 72.9634 205.072 73.1299 202.534 73.1299Z" fill="white"/>
<path d="M211.745 72.7554V28.1299H221.794V51.5973L231.281 40.7998H243.014L231.78 52.7831L244.325 72.7554H232.529L224.852 59.711L221.794 62.9565V72.7554H211.745Z" fill="white"/>
<path d="M246.67 72.7554V40.7998H256.843V72.7554H246.67ZM246.67 36.3684V28.1299H256.843V36.3684H246.67Z" fill="white"/>
<path d="M274.395 73.1299C271.149 73.1299 268.632 72.4849 266.843 71.1951C265.095 69.8636 264.221 67.5751 264.221 64.3296V47.1659H259.977V40.7998H264.221V30.6888H274.145V40.7998H279.949V47.1659H274.145V62.1451C274.145 63.3102 274.436 64.1216 275.019 64.5793C275.643 65.037 276.538 65.2658 277.703 65.2658C278.035 65.2658 278.472 65.2658 279.013 65.2658C279.554 65.2242 279.866 65.2034 279.949 65.2034V72.6306C278.784 72.9634 276.933 73.1299 274.395 73.1299Z" fill="white"/>
</svg>
