<svg width="81" height="20" viewBox="0 0 81 20" fill="none" xmlns="http://www.w3.org/2000/svg">
<path d="M32.1262 14.8773C30.9245 14.8773 29.9664 14.6163 29.2605 14.0943C28.5462 13.5723 28.1764 12.8314 28.1512 11.8547H30.3698C30.4623 12.7051 31.0421 13.126 32.1178 13.126C32.5128 13.126 32.849 13.0503 33.1263 12.8987C33.4036 12.7472 33.5465 12.5114 33.5465 12.1915C33.5465 11.981 33.4624 11.7957 33.286 11.6526C33.1095 11.5095 32.933 11.4 32.7565 11.3495C32.58 11.2906 32.2355 11.1979 31.7396 11.0716C31.7144 11.0632 31.6976 11.0548 31.6892 11.0548C31.6808 11.0464 31.6724 11.0464 31.6556 11.038C31.6388 11.038 31.622 11.038 31.6052 11.038C31.2186 10.9454 30.9077 10.8612 30.664 10.7938C30.4202 10.718 30.1429 10.6086 29.832 10.4654C29.521 10.3223 29.2689 10.1623 29.0924 9.98551C28.9076 9.8087 28.7479 9.58137 28.6218 9.2951C28.4958 9.00883 28.4285 8.68046 28.4285 8.32684C28.4285 7.4091 28.7563 6.7271 29.4034 6.27244C30.0589 5.80936 30.9077 5.58203 31.9666 5.58203C32.975 5.58203 33.807 5.81778 34.4457 6.28086C35.0928 6.74394 35.4373 7.42594 35.4794 8.32684H33.3196C33.2775 7.99005 33.1347 7.72062 32.8826 7.53539C32.6389 7.35016 32.3027 7.25754 31.8909 7.25754C31.5127 7.25754 31.2018 7.33332 30.9665 7.48487C30.7228 7.63643 30.6051 7.8385 30.6051 8.09109C30.6051 8.36894 30.748 8.57943 31.0337 8.70572C31.3111 8.84044 31.8489 8.99199 32.6221 9.16039C33.1179 9.27826 33.5213 9.39614 33.8322 9.50559C34.1515 9.61505 34.4709 9.77502 34.7986 9.98551C35.1264 10.196 35.3701 10.4654 35.5298 10.7938C35.6979 11.1222 35.7735 11.5095 35.7735 11.9726C35.7735 12.8735 35.4289 13.5891 34.7482 14.1027C34.0591 14.6163 33.1935 14.8773 32.1262 14.8773ZM36.5719 16.7718V15.1889H37.2694C37.824 15.1889 38.1013 14.9615 38.1013 14.5153C38.1013 14.2964 37.9753 13.8586 37.7148 13.1934L35.8407 8.27632H37.9753L38.8409 10.9959L39.2359 12.4693H39.2611C39.3787 11.9052 39.5048 11.4084 39.6308 10.9959L40.4712 8.27632H42.4965L40.2947 14.751C40.0342 15.5004 39.7317 16.0224 39.3787 16.3255C39.0258 16.6202 38.5299 16.7718 37.8913 16.7718H36.5719ZM42.9504 14.6668V8.27632H44.9V9.15197H44.9421C45.4295 8.44471 46.085 8.09109 46.9086 8.09109C47.5977 8.09109 48.1355 8.31 48.5305 8.75624C48.9255 9.20248 49.1188 9.78344 49.1188 10.5075V14.6668H47.0934V10.9201C47.0934 10.5749 47.0094 10.297 46.8413 10.095C46.6648 9.88448 46.4211 9.78344 46.0934 9.78344C45.7656 9.78344 45.4967 9.90974 45.2866 10.1623C45.0765 10.4065 44.9757 10.7349 44.9757 11.1306V14.6668H42.9504ZM52.161 12.8903C52.3963 13.2439 52.724 13.4123 53.1526 13.4123C53.5896 13.4123 53.9258 13.2439 54.1611 12.8903C54.3964 12.5451 54.514 12.0736 54.514 11.4842C54.514 10.8948 54.3964 10.4233 54.1611 10.0697C53.9258 9.71608 53.5896 9.53927 53.1526 9.53927C52.724 9.53927 52.3963 9.70766 52.161 10.0613C51.9256 10.4065 51.808 10.8864 51.808 11.4842C51.808 12.0736 51.9256 12.5451 52.161 12.8903ZM55.6233 13.9007C55.0014 14.5405 54.1779 14.8605 53.1694 14.8605C52.1525 14.8605 51.3374 14.5405 50.7071 13.9007C50.0684 13.2608 49.7575 12.4525 49.7575 11.4842C49.7575 10.5075 50.0684 9.69924 50.7071 9.05935C51.3374 8.41946 52.1525 8.09951 53.1694 8.09951C54.1779 8.09951 55.0014 8.41946 55.6233 9.05935C56.2536 9.69924 56.5646 10.5075 56.5646 11.4842C56.5646 12.4525 56.2536 13.2608 55.6233 13.9007ZM57.2537 14.6668V8.27632H59.2034V9.15197H59.2454C59.7328 8.44471 60.3883 8.09109 61.2119 8.09109C61.901 8.09109 62.4388 8.31 62.8338 8.75624C63.2288 9.20248 63.4305 9.78344 63.4305 10.5075V14.6668H61.3968V10.9201C61.3968 10.5749 61.3127 10.297 61.1446 10.095C60.9766 9.88448 60.7245 9.78344 60.4051 9.78344C60.069 9.78344 59.8 9.90974 59.5899 10.1623C59.3882 10.4065 59.279 10.7349 59.279 11.1306V14.6668H57.2537ZM64.4389 16.7718V15.1889H65.1365C65.6911 15.1889 65.9684 14.9615 65.9684 14.5153C65.9684 14.2964 65.8424 13.8586 65.5819 13.1934L63.6994 8.27632H65.8424L66.6996 10.9959L67.103 12.4693H67.1282C67.2374 11.9052 67.3635 11.4084 67.4979 10.9959L68.3299 8.27632H70.3636L68.1618 14.751C67.9013 15.5004 67.5988 16.0224 67.2458 16.3255C66.8929 16.6202 66.397 16.7718 65.7583 16.7718H64.4389ZM70.809 14.6668V8.27632H72.7503V9.18564H72.7924C73.2294 8.45313 73.8764 8.09109 74.7168 8.09109C75.5572 8.09109 76.1539 8.46155 76.5152 9.2109H76.5405C77.0195 8.46155 77.6834 8.09109 78.5406 8.09109C79.2465 8.09109 79.7843 8.31 80.1541 8.74782C80.5239 9.18564 80.7088 9.7666 80.7088 10.5075V14.6668H78.6834V10.8696C78.6834 10.1455 78.3809 9.78344 77.7842 9.78344C77.4649 9.78344 77.2212 9.90132 77.0447 10.1455C76.8598 10.3812 76.7758 10.6928 76.7758 11.0801V14.6668H74.742V10.8696C74.742 10.1455 74.4479 9.78344 73.8512 9.78344C73.5319 9.78344 73.2882 9.90132 73.1117 10.1455C72.9268 10.3812 72.8428 10.6928 72.8428 11.0801V14.6668H70.809Z" fill="white"/>
<path d="M12.7784 7.54885H10.0388L10.8372 4.3999L7.39999 7.53201V9.46853L12.7784 9.47695V7.54885ZM9.34128 15.5475L12.7784 12.4154V10.4705H7.39999V12.3986H10.1312L9.34128 15.5475Z" fill="white"/>
<path fill-rule="evenodd" clip-rule="evenodd" d="M11.0525 0.0563843C16.5505 0.637341 20.5246 5.56284 19.9436 11.0525C19.3627 16.5505 14.4372 20.5246 8.94754 19.9436C3.44951 19.3627 -0.524572 14.4372 0.0563843 8.94754C0.637341 3.44951 5.56284 -0.524572 11.0525 0.0563843ZM10.8335 2.14446C6.51426 1.68138 2.59912 4.84717 2.14446 9.16645C1.68138 13.4857 4.84717 17.4009 9.16645 17.8555C13.4857 18.3186 17.4009 15.1528 17.8555 10.8335C18.3186 6.51426 15.1528 2.59912 10.8335 2.14446Z" fill="#FF6600"/>
</svg>
